<?xml version="1.0" encoding="utf-8"?>
<!-- Generator: Adobe Illustrator 19.0.0, SVG Export Plug-In . SVG Version: 6.00 Build 0)  -->
<svg version="1.1" id="Layer_1" xmlns="http://www.w3.org/2000/svg" xmlns:xlink="http://www.w3.org/1999/xlink" x="0px" y="0px"
	 viewBox="0 0 640 1136" style="enable-background:new 0 0 640 1136;" xml:space="preserve">
<style type="text/css">
	.st0{opacity:0.15;fill:#020202;}
	.st1{opacity:0.3;}
	.st2{font-family:'RobotoMono-Regular';}
	.st3{font-size:20px;}
</style>
<g>
	<rect x="452.9" y="525.8" class="st0" width="54.6" height="25.9"/>
	<text transform="matrix(1 0 0 1 468.1999 544.821)" class="st1 st2 st3">46</text>
</g>
<g>
	<rect x="392.4" y="525.8" class="st0" width="54.6" height="25.9"/>
	<text transform="matrix(1 0 0 1 407.6705 544.821)" class="st1 st2 st3">65</text>
</g>
<g>
	<rect x="452.9" y="554" class="st0" width="54.6" height="25.9"/>
	<text transform="matrix(1 0 0 1 468.1999 572.321)" class="st1 st2 st3">47</text>
</g>
<g>
	<rect x="392.4" y="554" class="st0" width="54.6" height="25.9"/>
	<text transform="matrix(1 0 0 1 407.67 572.321)" class="st1 st2 st3">64</text>
</g>
<g>
	<rect x="392.4" y="672.2" class="st0" width="54.6" height="25.9"/>
	<text transform="matrix(1 0 0 1 407.67 692.1543)" class="st1 st2 st3">62</text>
</g>
<g>
	<rect x="452.9" y="672.2" class="st0" width="54.6" height="25.9"/>
	<text transform="matrix(1 0 0 1 468.1999 692.1543)" class="st1 st2 st3">49</text>
</g>
<g>
	<rect x="392.4" y="640.7" class="st0" width="54.6" height="25.9"/>
	<text transform="matrix(1 0 0 1 407.67 661.1543)" class="st1 st2 st3">63</text>
</g>
<g>
	<rect x="452.9" y="640.7" class="st0" width="54.6" height="25.9"/>
	<text transform="matrix(1 0 0 1 468.1999 661.1543)" class="st1 st2 st3">48</text>
</g>
<g>
	<rect x="452.9" y="700.4" class="st0" width="54.6" height="25.9"/>
	<text transform="matrix(1 0 0 1 468.1999 719.6543)" class="st1 st2 st3">50</text>
</g>
<g>
	<rect x="392.4" y="700.4" class="st0" width="54.6" height="25.9"/>
	<text transform="matrix(1 0 0 1 407.67 719.6543)" class="st1 st2 st3">61</text>
</g>
<g>
	<rect x="392.4" y="760.1" class="st0" width="54.6" height="25.9"/>
	<text transform="matrix(1 0 0 1 407.67 780.4877)" class="st1 st2 st3">59</text>
</g>
<g>
	<rect x="452.9" y="963.8" class="st0" width="54.6" height="25.9"/>
	<text transform="matrix(1 0 0 1 468.1999 984.6542)" class="st1 st2 st3">55</text>
</g>
<g>
	<rect x="392.4" y="728.5" class="st0" width="54.6" height="25.9"/>
	<text transform="matrix(1 0 0 1 407.67 749.4876)" class="st1 st2 st3">60</text>
</g>
<g>
	<rect x="452.9" y="728.5" class="st0" width="54.6" height="25.9"/>
	<text transform="matrix(1 0 0 1 468.1998 749.4876)" class="st1 st2 st3">51</text>
</g>
<g>
	<rect x="452.9" y="935.7" class="st0" width="54.6" height="25.9"/>
	<text transform="matrix(1 0 0 1 468.1999 953.6542)" class="st1 st2 st3">54</text>
</g>
<g>
	<rect x="560.5" y="1023.4" class="st0" width="54.6" height="25.9"/>
	<text transform="matrix(1 0 0 1 581.7916 1042.9875)" class="st1 st2 st3">3</text>
</g>
<g>
	<rect x="560.5" y="1051.6" class="st0" width="54.6" height="25.9"/>
	<text transform="matrix(1 0 0 1 581.7916 1070.4875)" class="st1 st2 st3">2</text>
</g>
<g>
	<rect x="560.5" y="1079.7" class="st0" width="54.6" height="25.9"/>
	<text transform="matrix(1 0 0 1 581.7916 1100.3209)" class="st1 st2 st3">1</text>
</g>
<g>
	<rect x="560.5" y="935.7" class="st0" width="54.6" height="25.9"/>
	<text transform="matrix(1 0 0 1 581.7916 953.6542)" class="st1 st2 st3">6</text>
</g>
<g>
	<rect x="560.5" y="963.8" class="st0" width="54.6" height="25.9"/>
	<text transform="matrix(1 0 0 1 581.7916 981.1542)" class="st1 st2 st3">5</text>
</g>
<g>
	<rect x="560.5" y="992" class="st0" width="54.6" height="25.9"/>
	<text transform="matrix(1 0 0 1 581.7916 1010.9876)" class="st1 st2 st3">4</text>
</g>
<g>
	<rect x="560.5" y="847.8" class="st0" width="54.6" height="25.9"/>
	<text transform="matrix(1 0 0 1 581.7916 867.6542)" class="st1 st2 st3">9</text>
</g>
<g>
	<rect x="560.5" y="876" class="st0" width="54.6" height="25.9"/>
	<text transform="matrix(1 0 0 1 581.7916 895.1542)" class="st1 st2 st3">8</text>
</g>
<g>
	<rect x="560.5" y="904.1" class="st0" width="54.6" height="25.9"/>
	<text transform="matrix(1 0 0 1 581.7916 924.9876)" class="st1 st2 st3">7</text>
</g>
<g>
	<rect x="560.5" y="760.1" class="st0" width="54.6" height="25.9"/>
	<text transform="matrix(1 0 0 1 575.7906 779.3207)" class="st1 st2 st3">12</text>
</g>
<g>
	<rect x="560.5" y="788.2" class="st0" width="54.6" height="25.9"/>
	<text transform="matrix(1 0 0 1 575.7906 806.8207)" class="st1 st2 st3">11</text>
</g>
<g>
	<rect x="560.5" y="816.3" class="st0" width="54.6" height="25.9"/>
	<text transform="matrix(1 0 0 1 575.7906 836.654)" class="st1 st2 st3">10</text>
</g>
<g>
	<rect x="560.5" y="672.2" class="st0" width="54.6" height="25.9"/>
	<text transform="matrix(1 0 0 1 575.7906 690.9875)" class="st1 st2 st3">15</text>
</g>
<g>
	<rect x="560.5" y="700.4" class="st0" width="54.6" height="25.9"/>
	<text transform="matrix(1 0 0 1 575.7906 718.4875)" class="st1 st2 st3">14</text>
</g>
<g>
	<rect x="560.5" y="728.5" class="st0" width="54.6" height="25.9"/>
	<text transform="matrix(1 0 0 1 575.7906 748.3208)" class="st1 st2 st3">13</text>
</g>
<g>
	<rect x="560.5" y="584.5" class="st0" width="54.6" height="25.9"/>
	<text transform="matrix(1 0 0 1 575.7906 603.821)" class="st1 st2 st3">18</text>
</g>
<g>
	<rect x="560.5" y="612.6" class="st0" width="54.6" height="25.9"/>
	<text transform="matrix(1 0 0 1 575.7906 631.321)" class="st1 st2 st3">17</text>
</g>
<g>
	<rect x="560.5" y="640.7" class="st0" width="54.6" height="25.9"/>
	<text transform="matrix(1 0 0 1 575.7906 661.1544)" class="st1 st2 st3">16</text>
</g>
<g>
	<rect x="560.5" y="496.6" class="st0" width="54.6" height="25.9"/>
	<text transform="matrix(1 0 0 1 575.7906 516.1544)" class="st1 st2 st3">21</text>
</g>
<g>
	<rect x="560.5" y="524.7" class="st0" width="54.6" height="25.9"/>
	<text transform="matrix(1 0 0 1 575.7906 543.6544)" class="st1 st2 st3">20</text>
</g>
<g>
	<rect x="560.5" y="552.9" class="st0" width="54.6" height="25.9"/>
	<text transform="matrix(1 0 0 1 575.7906 573.4877)" class="st1 st2 st3">19</text>
</g>
<g>
	<rect x="560.5" y="408.8" class="st0" width="54.6" height="25.9"/>
	<text transform="matrix(1 0 0 1 575.7906 428.821)" class="st1 st2 st3">24</text>
</g>
<g>
	<rect x="560.5" y="437" class="st0" width="54.6" height="25.9"/>
	<text transform="matrix(1 0 0 1 575.7906 456.321)" class="st1 st2 st3">23</text>
</g>
<g>
	<rect x="560.5" y="465.1" class="st0" width="54.6" height="25.9"/>
	<text transform="matrix(1 0 0 1 575.7906 486.1543)" class="st1 st2 st3">22</text>
</g>
<g>
	<rect x="560.5" y="321.4" class="st0" width="54.6" height="25.9"/>
	<text transform="matrix(1 0 0 1 575.7906 340.821)" class="st1 st2 st3">27</text>
</g>
<g>
	<rect x="560.5" y="349.6" class="st0" width="54.6" height="25.9"/>
	<text transform="matrix(1 0 0 1 575.7906 368.321)" class="st1 st2 st3">26</text>
</g>
<g>
	<rect x="560.5" y="377.7" class="st0" width="54.6" height="25.9"/>
	<text transform="matrix(1 0 0 1 575.7906 398.1543)" class="st1 st2 st3">25</text>
</g>
<g>
	<rect x="560.5" y="233.7" class="st0" width="54.6" height="25.9"/>
	<text transform="matrix(1 0 0 1 575.7906 254.1543)" class="st1 st2 st3">30</text>
</g>
<g>
	<rect x="560.5" y="261.8" class="st0" width="54.6" height="25.9"/>
	<text transform="matrix(1 0 0 1 575.7906 281.6543)" class="st1 st2 st3">29</text>
</g>
<g>
	<rect x="560.5" y="290" class="st0" width="54.6" height="25.9"/>
	<text transform="matrix(1 0 0 1 575.7906 311.4877)" class="st1 st2 st3">28</text>
</g>
<g>
	<rect x="452.9" y="233.7" class="st0" width="54.6" height="25.9"/>
	<text transform="matrix(1 0 0 1 468.1996 254.1543)" class="st1 st2 st3">49</text>
</g>
<g>
	<rect x="452.9" y="261.8" class="st0" width="54.6" height="25.9"/>
	<text transform="matrix(1 0 0 1 468.1996 281.6543)" class="st1 st2 st3">41</text>
</g>
<g>
	<rect x="452.9" y="290" class="st0" width="54.6" height="25.9"/>
	<text transform="matrix(1 0 0 1 468.1996 311.4877)" class="st1 st2 st3">42</text>
</g>
<g>
	<rect x="392.4" y="233.7" class="st0" width="54.6" height="25.9"/>
	<text transform="matrix(1 0 0 1 407.6701 254.1543)" class="st1 st2 st3">71</text>
</g>
<g>
	<rect x="392.4" y="261.8" class="st0" width="54.6" height="25.9"/>
	<text transform="matrix(1 0 0 1 407.6701 281.6543)" class="st1 st2 st3">70</text>
</g>
<g>
	<rect x="392.4" y="290" class="st0" width="54.6" height="25.9"/>
	<text transform="matrix(1 0 0 1 407.6701 311.4877)" class="st1 st2 st3">69</text>
</g>
<g>
	<rect x="452.9" y="145.8" class="st0" width="54.6" height="25.9"/>
	<text transform="matrix(1 0 0 1 468.1996 165.1543)" class="st1 st2 st3">37</text>
</g>
<g>
	<rect x="452.9" y="174" class="st0" width="54.6" height="25.9"/>
	<text transform="matrix(1 0 0 1 468.1996 192.6543)" class="st1 st2 st3">38</text>
</g>
<g>
	<rect x="452.9" y="202.1" class="st0" width="54.6" height="25.9"/>
	<text transform="matrix(1 0 0 1 468.1996 222.4876)" class="st1 st2 st3">39</text>
</g>
<g>
	<rect x="392.4" y="145.8" class="st0" width="54.6" height="25.9"/>
	<text transform="matrix(1 0 0 1 407.6702 165.1543)" class="st1 st2 st3">74</text>
</g>
<g>
	<rect x="392.4" y="174" class="st0" width="54.6" height="25.9"/>
	<text transform="matrix(1 0 0 1 407.6702 192.6543)" class="st1 st2 st3">73</text>
</g>
<g>
	<rect x="392.4" y="202.1" class="st0" width="54.6" height="25.9"/>
	<text transform="matrix(1 0 0 1 407.6702 222.4876)" class="st1 st2 st3">72</text>
</g>
<g>
	<rect x="452.9" y="58.1" class="st0" width="54.6" height="25.9"/>
	<text transform="matrix(1 0 0 1 468.1996 77.4043)" class="st1 st2 st3">34</text>
</g>
<g>
	<rect x="452.9" y="86.2" class="st0" width="54.6" height="25.9"/>
	<text transform="matrix(1 0 0 1 468.1996 104.9043)" class="st1 st2 st3">35</text>
</g>
<g>
	<rect x="452.9" y="114.3" class="st0" width="54.6" height="25.9"/>
	<text transform="matrix(1 0 0 1 468.1996 134.7376)" class="st1 st2 st3">36</text>
</g>
<g>
	<rect x="392.4" y="58.1" class="st0" width="54.6" height="25.9"/>
	<text transform="matrix(1 0 0 1 407.6702 77.4043)" class="st1 st2 st3">77</text>
</g>
<g>
	<rect x="392.4" y="86.2" class="st0" width="54.6" height="25.9"/>
	<text transform="matrix(1 0 0 1 407.6702 104.9043)" class="st1 st2 st3">76</text>
</g>
<g>
	<rect x="392.4" y="114.3" class="st0" width="54.6" height="25.9"/>
	<text transform="matrix(1 0 0 1 407.6702 134.7376)" class="st1 st2 st3">75</text>
</g>
<g>
	<rect x="452.9" y="321.4" class="st0" width="54.6" height="25.9"/>
	<text transform="matrix(1 0 0 1 468.1996 339.6543)" class="st1 st2 st3">43</text>
</g>
<g>
	<rect x="452.9" y="349.6" class="st0" width="54.6" height="25.9"/>
	<text transform="matrix(1 0 0 1 468.1996 367.1543)" class="st1 st2 st3">44</text>
</g>
<g>
	<rect x="452.9" y="377.7" class="st0" width="54.6" height="25.9"/>
	<text transform="matrix(1 0 0 1 468.1996 396.9876)" class="st1 st2 st3">45</text>
</g>
<g>
	<rect x="392.4" y="321.4" class="st0" width="54.6" height="25.9"/>
	<text transform="matrix(1 0 0 1 407.6701 339.6543)" class="st1 st2 st3">68</text>
</g>
<g>
	<rect x="392.4" y="349.6" class="st0" width="54.6" height="25.9"/>
	<text transform="matrix(1 0 0 1 407.6701 367.1543)" class="st1 st2 st3">67</text>
</g>
<g>
	<rect x="392.4" y="377.7" class="st0" width="54.6" height="25.9"/>
	<text transform="matrix(1 0 0 1 407.6701 396.9876)" class="st1 st2 st3">66</text>
</g>
<g>
	<rect x="284.2" y="233.7" class="st0" width="54.6" height="25.9"/>
	<text transform="matrix(1 0 0 1 298.7377 254.1543)" class="st1 st2 st3">84</text>
</g>
<g>
	<rect x="284.2" y="261.8" class="st0" width="54.6" height="25.9"/>
	<text transform="matrix(1 0 0 1 298.7377 281.6543)" class="st1 st2 st3">85</text>
</g>
<g>
	<rect x="284.2" y="290" class="st0" width="54.6" height="25.9"/>
	<text transform="matrix(1 0 0 1 298.7377 311.4877)" class="st1 st2 st3">86</text>
</g>
<g>
	<rect x="223.7" y="233.7" class="st0" width="54.6" height="25.9"/>
	<text transform="matrix(1 0 0 1 232.2073 254.1543)" class="st1 st2 st3">189</text>
</g>
<g>
	<rect x="223.7" y="261.8" class="st0" width="54.6" height="25.9"/>
	<text transform="matrix(1 0 0 1 232.2073 281.6543)" class="st1 st2 st3">188</text>
</g>
<g>
	<rect x="223.7" y="290" class="st0" width="54.6" height="25.9"/>
	<text transform="matrix(1 0 0 1 232.2073 311.4877)" class="st1 st2 st3">187</text>
</g>
<g>
	<rect x="284.2" y="145.8" class="st0" width="54.6" height="25.9"/>
	<text transform="matrix(1 0 0 1 298.7377 165.1543)" class="st1 st2 st3">81</text>
</g>
<g>
	<rect x="284.2" y="174" class="st0" width="54.6" height="25.9"/>
	<text transform="matrix(1 0 0 1 298.7377 192.6543)" class="st1 st2 st3">82</text>
</g>
<g>
	<rect x="284.2" y="202.1" class="st0" width="54.6" height="25.9"/>
	<text transform="matrix(1 0 0 1 298.7377 222.4876)" class="st1 st2 st3">83</text>
</g>
<g>
	<rect x="223.7" y="145.8" class="st0" width="54.6" height="25.9"/>
	<text transform="matrix(1 0 0 1 232.2074 165.1543)" class="st1 st2 st3">192</text>
</g>
<g>
	<rect x="223.7" y="174" class="st0" width="54.6" height="25.9"/>
	<text transform="matrix(1 0 0 1 232.2074 192.6543)" class="st1 st2 st3">191</text>
</g>
<g>
	<rect x="223.7" y="202.1" class="st0" width="54.6" height="25.9"/>
	<text transform="matrix(1 0 0 1 232.2074 222.4876)" class="st1 st2 st3">190</text>
</g>
<g>
	<rect x="284.2" y="58.1" class="st0" width="54.6" height="25.9"/>
	<text transform="matrix(1 0 0 1 298.7377 77.4043)" class="st1 st2 st3">78</text>
</g>
<g>
	<rect x="284.2" y="86.2" class="st0" width="54.6" height="25.9"/>
	<text transform="matrix(1 0 0 1 298.7377 104.9043)" class="st1 st2 st3">79</text>
</g>
<g>
	<rect x="284.2" y="114.3" class="st0" width="54.6" height="25.9"/>
	<text transform="matrix(1 0 0 1 298.7377 134.7376)" class="st1 st2 st3">80</text>
</g>
<g>
	<rect x="223.7" y="58.1" class="st0" width="54.6" height="25.9"/>
	<text transform="matrix(1 0 0 1 232.2074 77.4043)" class="st1 st2 st3">195</text>
</g>
<g>
	<rect x="223.7" y="86.2" class="st0" width="54.6" height="25.9"/>
	<text transform="matrix(1 0 0 1 232.2074 104.9043)" class="st1 st2 st3">194</text>
</g>
<g>
	<rect x="110.2" y="61.7" class="st0" width="54.6" height="25.9"/>
	<text transform="matrix(1 0 0 1 118.3827 80.4043)" class="st1 st2 st3">182</text>
</g>
<g>
	<rect x="110.2" y="89.8" class="st0" width="54.6" height="25.9"/>
	<text transform="matrix(1 0 0 1 118.3827 107.9043)" class="st1 st2 st3">181</text>
</g>
<g>
	<rect x="223.7" y="114.3" class="st0" width="54.6" height="25.9"/>
	<text transform="matrix(1 0 0 1 232.2074 134.7376)" class="st1 st2 st3">193</text>
</g>
<g>
	<rect x="284.2" y="321.4" class="st0" width="54.6" height="25.9"/>
	<text transform="matrix(1 0 0 1 298.7377 339.6543)" class="st1 st2 st3">87</text>
</g>
<g>
	<rect x="284.2" y="349.6" class="st0" width="54.6" height="25.9"/>
	<text transform="matrix(1 0 0 1 298.7377 367.1543)" class="st1 st2 st3">88</text>
</g>
<g>
	<rect x="284.2" y="377.7" class="st0" width="54.6" height="25.9"/>
	<text transform="matrix(1 0 0 1 298.7377 396.9876)" class="st1 st2 st3">89</text>
</g>
<g>
	<rect x="223.7" y="321.4" class="st0" width="54.6" height="25.9"/>
	<text transform="matrix(1 0 0 1 232.2073 339.6543)" class="st1 st2 st3">186</text>
</g>
<g>
	<rect x="223.7" y="349.6" class="st0" width="54.6" height="25.9"/>
	<text transform="matrix(1 0 0 1 232.2073 367.1543)" class="st1 st2 st3">185</text>
</g>
<g>
	<rect x="223.7" y="377.7" class="st0" width="54.6" height="25.9"/>
	<text transform="matrix(1 0 0 1 232.2073 396.9876)" class="st1 st2 st3">184</text>
</g>
<g>
	<rect x="283.5" y="640.7" class="st0" width="54.6" height="25.9"/>
	<text transform="matrix(1 0 0 1 298.7377 661.1542)" class="st1 st2 st3">96</text>
</g>
<g>
	<rect x="222.9" y="640.7" class="st0" width="54.6" height="25.9"/>
	<text transform="matrix(1 0 0 1 232.2073 661.1542)" class="st1 st2 st3">122</text>
</g>
<g>
	<rect x="284.2" y="496.6" class="st0" width="54.6" height="25.9"/>
	<text transform="matrix(1 0 0 1 298.7377 518.5829)" class="st1 st2 st3">93</text>
</g>
<g>
	<rect x="284.2" y="524.7" class="st0" width="54.6" height="25.9"/>
	<text transform="matrix(1 0 0 1 298.7377 546.0829)" class="st1 st2 st3">94</text>
</g>
<g>
	<rect x="284.2" y="552.9" class="st0" width="54.6" height="25.9"/>
	<text transform="matrix(1 0 0 1 298.7377 575.9162)" class="st1 st2 st3">95</text>
</g>
<g>
	<rect x="223.7" y="496.6" class="st0" width="54.6" height="25.9"/>
	<text transform="matrix(1 0 0 1 232.2074 518.5829)" class="st1 st2 st3">125</text>
</g>
<g>
	<rect x="223.7" y="524.7" class="st0" width="54.6" height="25.9"/>
	<text transform="matrix(1 0 0 1 232.2074 546.0829)" class="st1 st2 st3">124</text>
</g>
<g>
	<rect x="223.7" y="552.9" class="st0" width="54.6" height="25.9"/>
	<text transform="matrix(1 0 0 1 232.2074 575.9162)" class="st1 st2 st3">123</text>
</g>
<g>
	<rect x="284.2" y="409.9" class="st0" width="54.6" height="25.9"/>
	<text transform="matrix(1 0 0 1 298.7377 430.8329)" class="st1 st2 st3">90</text>
</g>
<g>
	<rect x="284.2" y="438.1" class="st0" width="54.6" height="25.9"/>
	<text transform="matrix(1 0 0 1 298.7377 458.3329)" class="st1 st2 st3">91</text>
</g>
<g>
	<rect x="284.2" y="466.2" class="st0" width="54.6" height="25.9"/>
	<text transform="matrix(1 0 0 1 298.7377 488.1662)" class="st1 st2 st3">92</text>
</g>
<g>
	<rect x="223.7" y="409.9" class="st0" width="54.6" height="25.9"/>
	<text transform="matrix(1 0 0 1 232.2074 430.8329)" class="st1 st2 st3">183</text>
</g>
<g>
	<rect x="223.7" y="466.2" class="st0" width="54.6" height="25.9"/>
	<text transform="matrix(1 0 0 1 232.2074 488.1662)" class="st1 st2 st3">126</text>
</g>
<g>
	<rect x="283.5" y="672.2" class="st0" width="54.6" height="25.9"/>
	<text transform="matrix(1 0 0 1 298.7377 693.0829)" class="st1 st2 st3">97</text>
</g>
<g>
	<rect x="283.5" y="700.4" class="st0" width="54.6" height="25.9"/>
	<text transform="matrix(1 0 0 1 298.7377 720.5829)" class="st1 st2 st3">98</text>
</g>
<g>
	<rect x="283.5" y="728.5" class="st0" width="54.6" height="25.9"/>
	<text transform="matrix(1 0 0 1 298.7377 750.4162)" class="st1 st2 st3">99</text>
</g>
<g>
	<rect x="222.9" y="672.2" class="st0" width="54.6" height="25.9"/>
	<text transform="matrix(1 0 0 1 232.2073 693.0829)" class="st1 st2 st3">121</text>
</g>
<g>
	<rect x="222.9" y="700.4" class="st0" width="54.6" height="25.9"/>
	<text transform="matrix(1 0 0 1 232.2073 720.5829)" class="st1 st2 st3">120</text>
</g>
<g>
	<rect x="222.9" y="728.5" class="st0" width="54.6" height="25.9"/>
	<text transform="matrix(1 0 0 1 232.2073 750.4162)" class="st1 st2 st3">119</text>
</g>
<g>
	<rect x="283.5" y="760.1" class="st0" width="54.6" height="25.9"/>
	<text transform="matrix(1 0 0 1 292.7367 782.0341)" class="st1 st2 st3">100</text>
</g>
<g>
	<rect x="222.9" y="760.1" class="st0" width="54.6" height="25.9"/>
	<text transform="matrix(1 0 0 1 232.2073 779.9713)" class="st1 st2 st3">118</text>
</g>
<g>
	<rect x="283.5" y="788.2" class="st0" width="54.6" height="25.9"/>
	<text transform="matrix(1 0 0 1 292.7367 810.2008)" class="st1 st2 st3">101</text>
</g>
<g>
	<rect x="283.5" y="816.3" class="st0" width="54.6" height="25.9"/>
	<text transform="matrix(1 0 0 1 292.7367 835.6379)" class="st1 st2 st3">102</text>
</g>
<g>
	<rect x="283.5" y="847.8" class="st0" width="54.6" height="25.9"/>
	<text transform="matrix(1 0 0 1 292.7367 865.4712)" class="st1 st2 st3">103</text>
</g>
<g>
	<rect x="222.9" y="788.2" class="st0" width="54.6" height="25.9"/>
	<text transform="matrix(1 0 0 1 232.2073 810.2008)" class="st1 st2 st3">117</text>
</g>
<g>
	<rect x="283.5" y="876" class="st0" width="54.6" height="25.9"/>
	<text transform="matrix(1 0 0 1 292.7367 895.1542)" class="st1 st2 st3">104</text>
</g>
<g>
	<rect x="283.5" y="904.1" class="st0" width="54.6" height="25.9"/>
	<text transform="matrix(1 0 0 1 292.7367 924.9875)" class="st1 st2 st3">105</text>
</g>
<g>
	<rect x="222.9" y="876" class="st0" width="54.6" height="25.9"/>
	<text transform="matrix(1 0 0 1 232.2073 895.1542)" class="st1 st2 st3">114</text>
</g>
<g>
	<rect x="222.9" y="904.1" class="st0" width="54.6" height="25.9"/>
	<text transform="matrix(1 0 0 1 232.2073 924.9875)" class="st1 st2 st3">113</text>
</g>
<g>
	<rect x="283.5" y="935.6" class="st0" width="54.6" height="25.9"/>
	<text transform="matrix(1 0 0 1 292.7367 954.5425)" class="st1 st2 st3">106</text>
</g>
<g>
	<rect x="222.9" y="935.6" class="st0" width="54.6" height="25.9"/>
	<text transform="matrix(1 0 0 1 232.2073 954.5425)" class="st1 st2 st3">112</text>
</g>
<g>
	<rect x="283.5" y="963.7" class="st0" width="54.6" height="25.9"/>
	<text transform="matrix(1 0 0 1 292.7367 982.7092)" class="st1 st2 st3">107</text>
</g>
<g>
	<rect x="222.9" y="963.7" class="st0" width="54.6" height="25.9"/>
	<text transform="matrix(1 0 0 1 232.2073 982.7092)" class="st1 st2 st3">111</text>
</g>
<g>
	<rect x="110.5" y="963.8" class="st0" width="54.6" height="25.9"/>
	<text transform="matrix(1 0 0 1 119.7689 982.8538)" class="st1 st2 st3">131</text>
</g>
<g>
	<rect x="110.5" y="992" class="st0" width="54.6" height="25.9"/>
	<text transform="matrix(1 0 0 1 119.7689 1012.6871)" class="st1 st2 st3">130</text>
</g>
<g>
	<rect x="110.5" y="1023.4" class="st0" width="54.6" height="25.9"/>
	<text transform="matrix(1 0 0 1 119.7689 1042.2421)" class="st1 st2 st3">129</text>
</g>
<g>
	<rect x="110.5" y="1051.6" class="st0" width="54.6" height="25.9"/>
	<text transform="matrix(1 0 0 1 119.7689 1070.4087)" class="st1 st2 st3">128</text>
</g>
<g>
	<rect x="110.5" y="1079.7" class="st0" width="54.6" height="25.9"/>
	<text transform="matrix(1 0 0 1 119.7689 1100.3209)" class="st1 st2 st3">127</text>
</g>
<g>
	<rect x="222.9" y="1023.4" class="st0" width="54.6" height="25.9"/>
	<text transform="matrix(1 0 0 1 232.2589 1042.2421)" class="st1 st2 st3">110</text>
</g>
<g>
	<rect x="222.9" y="1051.6" class="st0" width="54.6" height="25.9"/>
	<text transform="matrix(1 0 0 1 232.2589 1070.4087)" class="st1 st2 st3">109</text>
</g>
<g>
	<rect x="222.9" y="1079.7" class="st0" width="54.6" height="25.9"/>
	<text transform="matrix(1 0 0 1 232.2589 1100.3209)" class="st1 st2 st3">108</text>
</g>
<g>
	<rect x="222.9" y="816.3" class="st0" width="54.6" height="25.9"/>
	<text transform="matrix(1 0 0 1 232.2073 837.7008)" class="st1 st2 st3">116</text>
</g>
<g>
	<rect x="222.9" y="847.8" class="st0" width="54.6" height="25.9"/>
	<text transform="matrix(1 0 0 1 232.2073 865.4712)" class="st1 st2 st3">115</text>
</g>
<g>
	<rect x="138.6" y="795.4" class="st0" width="25.9" height="54.6"/>
	<text transform="matrix(4.489659e-011 1 -1 4.489659e-011 143.2571 805.4512)" class="st1 st2 st3">136</text>
</g>
<g>
	<rect x="138.6" y="738.6" class="st0" width="25.9" height="54.6"/>
	<text transform="matrix(4.489659e-011 1 -1 4.489659e-011 145.3196 744.9218)" class="st1 st2 st3">141</text>
</g>
<g>
	<rect x="110.5" y="795.4" class="st0" width="25.9" height="54.6"/>
	<text transform="matrix(4.489659e-011 1 -1 4.489659e-011 115.0901 805.4512)" class="st1 st2 st3">137</text>
</g>
<g>
	<rect x="82.3" y="795.4" class="st0" width="25.9" height="54.6"/>
	<text transform="matrix(4.489659e-011 1 -1 4.489659e-011 89.6536 805.4512)" class="st1 st2 st3">138</text>
</g>
<g>
	<rect x="51.7" y="795.4" class="st0" width="25.9" height="54.6"/>
	<text transform="matrix(4.489659e-011 1 -1 4.489659e-011 59.8196 805.4512)" class="st1 st2 st3">139</text>
</g>
<g>
	<rect x="110.5" y="738.6" class="st0" width="25.9" height="54.6"/>
	<text transform="matrix(4.489659e-011 1 -1 4.489659e-011 115.0901 744.9218)" class="st1 st2 st3">142</text>
</g>
<g>
	<rect x="23.6" y="795.4" class="st0" width="25.9" height="54.6"/>
	<text transform="matrix(4.489659e-011 1 -1 4.489659e-011 30.137 805.4512)" class="st1 st2 st3">140</text>
</g>
<g>
	<rect x="138.6" y="902.7" class="st0" width="25.9" height="54.6"/>
	<text transform="matrix(4.489659e-011 1 -1 4.489659e-011 143.2571 912.0321)" class="st1 st2 st3">132</text>
</g>
<g>
	<rect x="110.5" y="902.7" class="st0" width="25.9" height="54.6"/>
	<text transform="matrix(4.489659e-011 1 -1 4.489659e-011 115.0901 912.0321)" class="st1 st2 st3">133</text>
</g>
<g>
	<rect x="51.7" y="902.7" class="st0" width="25.9" height="54.6"/>
	<text transform="matrix(4.489659e-011 1 -1 4.489659e-011 59.8196 912.0321)" class="st1 st2 st3">134</text>
</g>
<g>
	<rect x="23.6" y="902.7" class="st0" width="25.9" height="54.6"/>
	<text transform="matrix(4.489659e-011 1 -1 4.489659e-011 30.137 912.0321)" class="st1 st2 st3">135</text>
</g>
<g>
	<rect x="23.6" y="738.6" class="st0" width="25.9" height="54.6"/>
	<text transform="matrix(4.489659e-011 1 -1 4.489659e-011 30.137 744.9218)" class="st1 st2 st3">145</text>
</g>
<g>
	<rect x="82.3" y="738.6" class="st0" width="25.9" height="54.6"/>
	<text transform="matrix(4.489659e-011 1 -1 4.489659e-011 87.5901 744.9218)" class="st1 st2 st3">143</text>
</g>
<g>
	<rect x="51.7" y="738.6" class="st0" width="25.9" height="54.6"/>
	<text transform="matrix(4.489659e-011 1 -1 4.489659e-011 59.8196 744.9218)" class="st1 st2 st3">144</text>
</g>
<g>
	<rect x="138.6" y="620.2" class="st0" width="25.9" height="54.6"/>
	<text transform="matrix(4.489659e-011 1 -1 4.489659e-011 143.2571 630.2)" class="st1 st2 st3">146</text>
</g>
<g>
	<rect x="138.6" y="563.3" class="st0" width="25.9" height="54.6"/>
	<text transform="matrix(4.489659e-011 1 -1 4.489659e-011 145.3196 569.6706)" class="st1 st2 st3">151</text>
</g>
<g>
	<rect x="110.5" y="620.2" class="st0" width="25.9" height="54.6"/>
	<text transform="matrix(4.489659e-011 1 -1 4.489659e-011 115.0901 630.2)" class="st1 st2 st3">147</text>
</g>
<g>
	<rect x="82.3" y="620.2" class="st0" width="25.9" height="54.6"/>
	<text transform="matrix(4.489659e-011 1 -1 4.489659e-011 89.6536 630.2)" class="st1 st2 st3">185</text>
</g>
<g>
	<rect x="51.7" y="620.2" class="st0" width="25.9" height="54.6"/>
	<text transform="matrix(4.489659e-011 1 -1 4.489659e-011 59.8196 630.2)" class="st1 st2 st3">149</text>
</g>
<g>
	<rect x="110.5" y="563.3" class="st0" width="25.9" height="54.6"/>
	<text transform="matrix(4.489659e-011 1 -1 4.489659e-011 115.0901 569.6706)" class="st1 st2 st3">152</text>
</g>
<g>
	<rect x="23.6" y="620.2" class="st0" width="25.9" height="54.6"/>
	<text transform="matrix(4.489659e-011 1 -1 4.489659e-011 30.137 630.2)" class="st1 st2 st3">150</text>
</g>
<g>
	<rect x="23.6" y="563.3" class="st0" width="25.9" height="54.6"/>
	<text transform="matrix(4.489659e-011 1 -1 4.489659e-011 30.137 569.6706)" class="st1 st2 st3">155</text>
</g>
<g>
	<rect x="82.3" y="563.3" class="st0" width="25.9" height="54.6"/>
	<text transform="matrix(4.489659e-011 1 -1 4.489659e-011 87.5901 569.6706)" class="st1 st2 st3">153</text>
</g>
<g>
	<rect x="51.7" y="563.3" class="st0" width="25.9" height="54.6"/>
	<text transform="matrix(4.489659e-011 1 -1 4.489659e-011 59.8196 569.6706)" class="st1 st2 st3">154</text>
</g>
<g>
	<rect x="138.6" y="454.2" class="st0" width="25.9" height="54.6"/>
	<text transform="matrix(4.489659e-011 1 -1 4.489659e-011 143.2571 462.0812)" class="st1 st2 st3">156</text>
</g>
<g>
	<rect x="138.6" y="393.3" class="st0" width="25.9" height="54.6"/>
	<text transform="matrix(4.489659e-011 1 -1 4.489659e-011 145.3196 397.5518)" class="st1 st2 st3">161</text>
</g>
<g>
	<rect x="110.5" y="454.2" class="st0" width="25.9" height="54.6"/>
	<text transform="matrix(4.489659e-011 1 -1 4.489659e-011 115.0901 462.0812)" class="st1 st2 st3">157</text>
</g>
<g>
	<rect x="82.3" y="454.2" class="st0" width="25.9" height="54.6"/>
	<text transform="matrix(4.489659e-011 1 -1 4.489659e-011 89.6536 462.0812)" class="st1 st2 st3">158</text>
</g>
<g>
	<rect x="51.7" y="454.2" class="st0" width="25.9" height="54.6"/>
	<text transform="matrix(4.489659e-011 1 -1 4.489659e-011 59.8196 462.0812)" class="st1 st2 st3">159</text>
</g>
<g>
	<rect x="110.5" y="393.3" class="st0" width="25.9" height="54.6"/>
	<text transform="matrix(4.489659e-011 1 -1 4.489659e-011 115.0901 397.5518)" class="st1 st2 st3">162</text>
</g>
<g>
	<rect x="23.6" y="454.2" class="st0" width="25.9" height="54.6"/>
	<text transform="matrix(4.489659e-011 1 -1 4.489659e-011 30.137 462.0812)" class="st1 st2 st3">160</text>
</g>
<g>
	<rect x="23.6" y="393.3" class="st0" width="25.9" height="54.6"/>
	<text transform="matrix(4.489659e-011 1 -1 4.489659e-011 30.137 397.5518)" class="st1 st2 st3">164</text>
</g>
<g>
	<rect x="82.3" y="393.3" class="st0" width="25.9" height="54.6"/>
	<text transform="matrix(4.489659e-011 1 -1 4.489659e-011 87.5901 397.5518)" class="st1 st2 st3">163</text>
</g>
<g>
	<rect x="51.7" y="393.3" class="st0" width="25.9" height="54.6"/>
	<text transform="matrix(4.489659e-011 1 -1 4.489659e-011 59.8196 397.5518)" class="st1 st2 st3">164</text>
</g>
<g>
	<rect x="138.6" y="284.9" class="st0" width="25.9" height="54.6"/>
	<text transform="matrix(4.489659e-011 1 -1 4.489659e-011 143.2571 294.9218)" class="st1 st2 st3">166</text>
</g>
<g>
	<rect x="138.6" y="228" class="st0" width="25.9" height="54.6"/>
	<text transform="matrix(4.489659e-011 1 -1 4.489659e-011 145.3196 234.3923)" class="st1 st2 st3">171</text>
</g>
<g>
	<rect x="110.5" y="284.9" class="st0" width="25.9" height="54.6"/>
	<text transform="matrix(4.489659e-011 1 -1 4.489659e-011 115.0901 294.9218)" class="st1 st2 st3">167</text>
</g>
<g>
	<rect x="82.3" y="284.9" class="st0" width="25.9" height="54.6"/>
	<text transform="matrix(4.489659e-011 1 -1 4.489659e-011 89.6536 294.9218)" class="st1 st2 st3">168</text>
</g>
<g>
	<rect x="51.7" y="284.9" class="st0" width="25.9" height="54.6"/>
	<text transform="matrix(4.489659e-011 1 -1 4.489659e-011 59.8196 294.9218)" class="st1 st2 st3">169</text>
</g>
<g>
	<rect x="110.5" y="228" class="st0" width="25.9" height="54.6"/>
	<text transform="matrix(4.489659e-011 1 -1 4.489659e-011 115.0901 234.3923)" class="st1 st2 st3">172</text>
</g>
<g>
	<rect x="23.6" y="284.9" class="st0" width="25.9" height="54.6"/>
	<text transform="matrix(4.489659e-011 1 -1 4.489659e-011 30.137 294.9218)" class="st1 st2 st3">170</text>
</g>
<g>
	<rect x="23.6" y="228" class="st0" width="25.9" height="54.6"/>
	<text transform="matrix(4.489659e-011 1 -1 4.489659e-011 30.137 234.3923)" class="st1 st2 st3">175</text>
</g>
<g>
	<rect x="82.3" y="228" class="st0" width="25.9" height="54.6"/>
	<text transform="matrix(4.489659e-011 1 -1 4.489659e-011 87.5901 234.3923)" class="st1 st2 st3">173</text>
</g>
<g>
	<rect x="51.7" y="228" class="st0" width="25.9" height="54.6"/>
	<text transform="matrix(4.489659e-011 1 -1 4.489659e-011 59.8196 234.3923)" class="st1 st2 st3">174</text>
</g>
<g>
	<rect x="138.6" y="119.3" class="st0" width="25.9" height="54.6"/>
	<text transform="matrix(4.489659e-011 1 -1 4.489659e-011 143.2571 126.6029)" class="st1 st2 st3">176</text>
</g>
<g>
	<rect x="561.9" y="80.6" class="st0" width="25.9" height="65.1"/>
	<text transform="matrix(4.489659e-011 1 -1 4.489659e-011 569.2571 100.1208)" class="st1 st2 st3">33</text>
</g>
<g>
	<rect x="110.5" y="119.3" class="st0" width="25.9" height="54.6"/>
	<text transform="matrix(4.489659e-011 1 -1 4.489659e-011 115.0901 126.6029)" class="st1 st2 st3">177</text>
</g>
<g>
	<rect x="82.3" y="119.3" class="st0" width="25.9" height="54.6"/>
	<text transform="matrix(4.489659e-011 1 -1 4.489659e-011 89.6536 126.6029)" class="st1 st2 st3">178</text>
</g>
<g>
	<rect x="51.7" y="119.3" class="st0" width="25.9" height="54.6"/>
	<text transform="matrix(4.489659e-011 1 -1 4.489659e-011 59.8196 126.6029)" class="st1 st2 st3">179</text>
</g>
<g>
	<rect x="23.6" y="119.3" class="st0" width="25.9" height="54.6"/>
	<text transform="matrix(4.489659e-011 1 -1 4.489659e-011 30.137 126.6029)" class="st1 st2 st3">180</text>
</g>
<g>
	<rect x="560.5" y="174" class="st0" width="54.6" height="25.9"/>
	<text transform="matrix(1 0 0 1 575.7906 192.6543)" class="st1 st2 st3">32</text>
</g>
<g>
	<rect x="560.5" y="202.1" class="st0" width="54.6" height="25.9"/>
	<text transform="matrix(1 0 0 1 575.7906 222.4877)" class="st1 st2 st3">31</text>
</g>
<g>
	<rect x="452.9" y="992" class="st0" width="54.6" height="25.9"/>
	<text transform="matrix(1 0 0 1 468.1999 1012.1542)" class="st1 st2 st3">56</text>
</g>
<g>
	<rect x="392.4" y="992" class="st0" width="54.6" height="25.9"/>
	<text transform="matrix(1 0 0 1 407.6702 1012.1542)" class="st1 st2 st3">57</text>
</g>
<g>
	<rect x="392.4" y="788.2" class="st0" width="54.6" height="25.9"/>
	<text transform="matrix(1 0 0 1 407.67 807.9876)" class="st1 st2 st3">58</text>
</g>
<g>
	<rect x="452.9" y="760.1" class="st0" width="54.6" height="25.9"/>
	<text transform="matrix(1 0 0 1 468.1994 780.4877)" class="st1 st2 st3">52</text>
</g>
<g>
	<rect x="452.9" y="788.2" class="st0" width="54.6" height="25.9"/>
	<text transform="matrix(1 0 0 1 468.1994 807.9876)" class="st1 st2 st3">53</text>
</g>
</svg>
